<svg height="86pt" preserveAspectRatio="xMidYMid meet" viewBox="0 0 89 86" width="89pt" xmlns="http://www.w3.org/2000/svg"><g transform="matrix(.1 0 0 -.1 0 86)"><path d="m510 761c0-11-18-54-39-95-22-42-36-76-33-76s25 19 49 41l42 42 78-2c85-2 113 4 113 24s-50 27-101 16c-69-16-74-15-54 16 17 25 17 27-1 40-27 19-54 16-54-6z"/><path d="m267 763c-4-3-7-13-7-22 0-26-44-113-83-163-53-69-23-59 49 17l62 64 73 3c46 2 74 7 76 15 7 19-40 26-87 13-49-13-60-8-37 18 22 24 21 39-2 52-23 12-35 13-44 3z"/><path d="m545 631c-5-10 69-81 85-81 5 0 14 9 20 19 12 24-8 48-48 57-15 3-32 7-39 9s-15 0-18-4z"/><path d="m270 602c0-5 14-21 30-37 27-26 32-27 46-14 27 28-2 58-58 59-10 0-18-4-18-8z"/><path d="m393 569c3-12 1-32-4-46-14-38-131-154-214-214-41-29-72-55-70-58 3-2 39 13 81 34 58 28 99 60 168 127l91 89 55-63c126-144 131-148 192-148s118 9 118 19c0 3-34 19-75 35-104 40-285 171-270 196 6 10-42 50-63 50-10 0-13-7-9-21z"/><path d="m440 364c-19-7-54-13-77-13-43-1-57-14-27-25 41-16 194 7 194 29 0 26-36 30-90 9z"/><path d="m420 264c-47-7-100-11-117-8-37 7-39 3-19-29 8-12 19-48 26-79 12-63 23-76 45-58 8 7 54 14 102 17 126 6 136 9 121 33-11 17-8 24 20 53 17 18 32 36 32 40 0 15-66 47-95 46-16-1-68-7-115-15zm99-28c16-19 4-83-16-90-8-3-45-9-83-12l-68-7-7 43c-4 23-3 46 2 51 8 8 94 25 139 28 12 0 27-5 33-13z"/></g></svg>