<svg height="90pt" preserveAspectRatio="xMidYMid meet" viewBox="0 0 92 90" width="92pt" xmlns="http://www.w3.org/2000/svg"><g transform="matrix(.1 0 0 -.1 0 90)"><path d="m635 773c-22-8-62-16-90-17-44-1-50-3-47-21 1-11 5-58 9-105 6-96 17-127 38-110 7 6 42 13 79 17l66 6-7-179c-3-98-10-187-15-197-7-14-17-16-46-12l-37 6 50-45c28-25 53-46 58-46 4 0 16 14 26 31 18 30 19 50 15 347-4 316-4 316-26 329-27 14-22 15-73-4zm29-29c13-5 16-23 16-90 0-75-2-84-19-84-10 0-39-3-65-6l-46-7v35c0 26 4 35 18 35 63-1 82 4 82 19 0 14-8 16-51 11l-50-6 3 36c3 35 6 38 48 49 25 7 46 12 47 13s8-2 17-5z"/><path d="m310 734c-20-8-54-12-80-9l-45 5 3-147c3-131 0-188-24-373-4-32-1-51 10-65 13-18 16-19 31-4 12 12 18 51 25 183 5 93 10 169 12 171 11 9 88 11 96 3 19-19 30 2 42 75 6 39 17 87 25 105 19 42 20 39-15 57-33 17-33 17-80-1zm30-117c-4-43-9-79-11-81s-23-6-46-9l-43-5v34c0 32 2 34 40 40 26 4 40 12 40 21 0 12-10 14-40 11-39-3-40-3-40 29 0 26 5 34 23 38 42 9 72 11 79 6 3-4 3-41-2-84z"/><path d="m435 424c-45-10-67-11-88-2-33 13-42 7-29-19 5-10 12-36 16-58 18-104 40-146 48-92 3 20 9 22 86 25 78 3 83 4 77 23-5 13 2 34 20 61 15 22 25 41 23 42-54 40-60 41-153 20zm65-56c0-47-9-55-66-63-48-6-52-5-58 17-17 65-9 73 87 77 35 1 37 0 37-31z"/></g></svg>